name C:\Users\u0101727\Documents\MyRepositories\upper-imu-dc\Results\main_tracking\Case_46\kinematics_filtered.mot
datacolumns 10
datarows 18
range 0.50000000 0.67000000
endheader 
time	clav_prot	clav_elev	scapula_abduction	scapula_elevation	scapula_upward_rot	scapula_winging	plane_elv	shoulder_elv	axial_rot	
          0.50000000	        -24.24100698	         -5.06825596	        -15.22083240	         -4.21207351	         11.48506224	          6.02158310	        -42.05444461	         11.23612410	         60.80954255	
          0.51000000	        -24.08290791	         -5.06429102	        -15.10300307	         -4.25384527	         11.58520045	          6.00351680	        -42.02074692	         11.25446941	         60.88006279	
          0.52000000	        -23.93652049	         -5.06293899	        -14.98503347	         -4.29595542	         11.68597083	          5.98541235	        -41.98572325	         11.27296693	         60.95109024	
          0.53000000	        -23.80994528	         -5.06556703	        -14.86878256	         -4.33784051	         11.78575054	          5.96763503	        -41.94798641	         11.29148709	         61.02051931	
          0.54000000	        -23.70564712	         -5.07266017	        -14.75469462	         -4.37903036	         11.88306306	          5.95053159	        -41.90550645	         11.31000550	         61.08586405	
          0.55000000	        -23.62214286	         -5.08405797	        -14.64244311	         -4.41912984	         11.97653952	          5.93443429	        -41.85561136	         11.32860757	         61.14415956	
          0.56000000	        -23.55592107	         -5.09924061	        -14.53157513	         -4.45780639	         12.06489391	          5.91966394	        -41.79500980	         11.34748592	         61.19190109	
          0.57000000	        -23.50283481	         -5.11754007	        -14.42196071	         -4.49478598	         12.14691946	          5.90653008	        -41.71983814	         11.36692945	         61.22503501	
          0.58000000	        -23.45902836	         -5.13828412	        -14.31406673	         -4.52985822	         12.22151138	          5.89532658	        -41.62573210	         11.38730524	         61.23900698	
          0.59000000	        -23.42147183	         -5.16088599	        -14.20906127	         -4.56289040	         12.28771867	          5.88632127	        -41.50792174	         11.40903534	         61.22886405	
          0.60000000	        -23.38816731	         -5.18489454	        -14.10873072	         -4.59384881	         12.34482308	          5.87973969	        -41.36134632	         11.43257019	         61.18940058	
          0.61000000	        -23.35806696	         -5.21002036	        -14.01516448	         -4.62282366	         12.39243515	          5.87574496	        -41.18078414	         11.45836065	         61.11533255	
          0.62000000	        -23.33070705	         -5.23615258	        -13.93012528	         -4.65005044	         12.43058500	          5.87441869	        -40.96099154	         11.48683098	         61.00148153	
          0.63000000	        -23.30589983	         -5.26335044	        -13.85464380	         -4.67591626	         12.45976890	          5.87574905	        -40.69684368	         11.51835598	         60.84294880	
          0.64000000	        -23.28392570	         -5.29178090	        -13.78958140	         -4.70093508	         12.48089893	          5.87963400	        -40.38347019	         11.55324547	         60.63526433	
          0.65000000	        -23.26550733	         -5.32166215	        -13.73588961	         -4.72568107	         12.49512629	          5.88591196	        -40.01638096	         11.59173644	         60.37450600	
          0.66000000	        -23.25098189	         -5.35326815	        -13.69349507	         -4.75069793	         12.50359212	          5.89441492	        -39.59157652	         11.63398914	         60.05738425	
          0.67000000	        -23.23985152	         -5.38691806	        -13.66077517	         -4.77643144	         12.50723828	          5.90501057	        -39.10563091	         11.68008161	         59.68127605	
